<svg width="353" height="163" viewBox="0 0 353 163" fill="none" xmlns="http://www.w3.org/2000/svg">
<path d="M46.574 153.788C38.122 148.28 31.9766 138.379 33.2343 128.369C40.8448 136.271 51.0051 141.226 61.9174 142.358C66.1274 142.779 70.8537 142.809 73.8435 145.803C75.7038 147.666 76.4943 150.389 76.5349 153.021C76.5755 155.653 75.943 158.244 75.3147 160.801L75.4691 161.44C65.3876 161.067 55.026 159.296 46.574 153.788Z" fill="#F0F0F0"/>
<path d="M33.446 128.367C36.6077 136.096 42.1242 142.632 49.212 147.046C50.7209 148.024 52.3745 148.758 54.1119 149.22C55.8189 149.616 57.6008 149.548 59.2724 149.022C60.8409 148.563 62.3922 147.912 64.0449 147.843C64.8914 147.82 65.7332 147.976 66.5151 148.301C67.297 148.626 68.0013 149.113 68.5819 149.729C70.0686 151.228 70.9282 153.171 71.7028 155.1C72.5629 157.243 73.4222 159.481 75.1738 161.068C75.386 161.26 75.0753 161.578 74.8634 161.386C71.8159 158.626 71.4805 154.197 69.0851 150.994C67.9673 149.5 66.3925 148.333 64.4671 148.284C62.7835 148.241 61.1832 148.91 59.5991 149.389C57.9759 149.925 56.246 150.056 54.5605 149.77C52.8052 149.398 51.126 148.729 49.595 147.793C46.1146 145.741 42.9785 143.154 40.3017 140.128C37.2274 136.691 34.7637 132.753 33.0173 128.485C32.9093 128.221 33.3387 128.104 33.446 128.367H33.446Z" fill="white"/>
<path d="M20.8461 145.759C19.9439 146.848 18.6842 147.58 17.2918 147.826C15.8994 148.071 14.4651 147.814 13.245 147.1C12.9986 146.954 13.213 146.565 13.4597 146.71C14.5946 147.377 15.9307 147.617 17.2268 147.386C18.5229 147.154 19.6936 146.467 20.5277 145.449C20.7092 145.228 21.0265 145.539 20.8461 145.759V145.759Z" fill="white"/>
<path d="M58.5078 149.359C58.264 146.479 56.9437 143.797 54.8102 141.848C54.5987 141.655 54.9093 141.336 55.1206 141.529C57.337 143.562 58.7053 146.356 58.9524 149.354C58.9757 149.639 58.531 149.643 58.5078 149.359V149.359Z" fill="white"/>
<path d="M37.7868 136.505C38.2236 136.156 38.5671 135.705 38.7863 135.191C39.0055 134.677 39.0936 134.116 39.0427 133.56C39.0157 133.274 39.4605 133.271 39.4873 133.554C39.5407 134.169 39.4426 134.788 39.2017 135.356C38.9607 135.925 38.5843 136.426 38.1052 136.815C38.0631 136.855 38.0071 136.878 37.9487 136.879C37.8904 136.88 37.8339 136.858 37.7908 136.819C37.7488 136.778 37.7249 136.721 37.7241 136.663C37.7234 136.604 37.7459 136.547 37.7868 136.505V136.505Z" fill="white"/>
<path d="M62.0648 110.052C62.0867 110.229 62.1086 110.407 62.1338 110.587C62.4406 112.973 62.9409 115.331 63.6296 117.637C63.68 117.817 63.7338 117.997 63.7892 118.175C65.5077 123.712 68.2394 128.883 71.8454 133.423C73.282 135.229 74.8538 136.923 76.5474 138.49C78.8863 140.653 81.5945 142.814 83.0394 145.544C83.1934 145.827 83.3296 146.119 83.4474 146.419L76.2365 161.202C76.2032 161.227 76.1732 161.254 76.1399 161.28L75.879 161.883C75.786 161.809 75.6912 161.729 75.5982 161.654C75.5441 161.611 75.4915 161.565 75.4374 161.522C75.4018 161.492 75.3663 161.462 75.3325 161.437C75.3207 161.427 75.3089 161.417 75.3003 161.409C75.2665 161.384 75.2378 161.357 75.2073 161.334C74.676 160.891 74.1469 160.444 73.6199 159.992C73.6165 159.99 73.6165 159.99 73.6148 159.986C69.6084 156.532 65.8551 152.714 62.8007 148.448C62.7088 148.319 62.6135 148.189 62.525 148.054C61.1588 146.123 59.9528 144.084 58.9189 141.957C58.3565 140.79 57.8535 139.596 57.4119 138.378C56.2769 135.23 55.6441 131.924 55.5367 128.579C55.3237 121.911 57.2454 115.25 61.7194 110.418C61.8339 110.294 61.9469 110.174 62.0648 110.052Z" fill="#F0F0F0"/>
<path d="M62.2362 110.177C60.1074 118.251 60.577 126.791 63.5781 134.583C64.1944 136.272 65.0731 137.854 66.1818 139.269C67.3063 140.613 68.7702 141.631 70.4214 142.218C71.95 142.796 73.5804 143.21 74.9419 144.15C75.6316 144.641 76.2097 145.272 76.6383 146.003C77.0669 146.733 77.3362 147.546 77.4287 148.387C77.7136 150.479 77.23 152.548 76.6868 154.555C76.0837 156.783 75.4219 159.088 75.8652 161.41C75.9189 161.691 75.4793 161.758 75.4257 161.477C74.6545 157.438 77.0533 153.7 77.0689 149.7C77.0762 147.834 76.5212 145.954 75.0136 144.756C73.6953 143.708 72.0142 143.279 70.4615 142.707C68.8423 142.158 67.3822 141.222 66.2086 139.978C65.0314 138.624 64.0933 137.079 63.4344 135.41C61.8911 131.676 60.9444 127.723 60.6292 123.694C60.244 119.099 60.6476 114.472 61.8227 110.013C61.8955 109.737 62.3086 109.902 62.2362 110.177V110.177Z" fill="white"/>
<path d="M62.464 132.131C61.0883 132.457 59.6415 132.283 58.3819 131.641C57.1223 130.999 56.1321 129.93 55.588 128.625C55.4788 128.36 55.8846 128.178 55.9939 128.443C56.4983 129.659 57.4208 130.655 58.595 131.251C59.7691 131.846 61.1175 132.003 62.3967 131.691C62.6748 131.624 62.7405 132.064 62.464 132.131V132.131Z" fill="white"/>
<path d="M69.6078 142.027C71.147 139.581 71.7077 136.644 71.1781 133.803C71.1254 133.521 71.565 133.454 71.6176 133.735C72.1632 136.693 71.5735 139.748 69.9661 142.29C69.8128 142.532 69.4552 142.268 69.6078 142.027Z" fill="white"/>
<path d="M60.8027 119.287C61.3613 119.272 61.9073 119.118 62.3918 118.84C62.8763 118.562 63.2841 118.167 63.5785 117.692C63.7287 117.448 64.0861 117.713 63.9369 117.955C63.6092 118.479 63.1583 118.914 62.6237 119.223C62.0891 119.531 61.487 119.705 60.87 119.727C60.812 119.734 60.7535 119.719 60.7065 119.684C60.6594 119.649 60.6273 119.598 60.6166 119.541C60.608 119.483 60.6227 119.423 60.6575 119.376C60.6924 119.328 60.7445 119.297 60.8027 119.287H60.8027Z" fill="white"/>
<path d="M304.51 153.788C312.962 148.28 319.107 138.379 317.849 128.369C310.239 136.271 300.079 141.226 289.166 142.358C284.956 142.779 280.23 142.809 277.24 145.803C275.38 147.666 274.589 150.389 274.549 153.021C274.508 155.653 275.141 158.244 275.769 160.801L275.614 161.44C285.696 161.067 296.058 159.296 304.51 153.788Z" fill="#F0F0F0"/>
<path d="M317.638 128.367C314.476 136.096 308.959 142.632 301.872 147.046C300.363 148.024 298.709 148.758 296.972 149.22C295.265 149.616 293.483 149.548 291.811 149.022C290.243 148.563 288.691 147.912 287.039 147.843C286.192 147.82 285.35 147.976 284.569 148.301C283.787 148.626 283.082 149.113 282.502 149.729C281.015 151.228 280.155 153.171 279.381 155.1C278.521 157.243 277.661 159.481 275.91 161.068C275.698 161.26 276.008 161.578 276.22 161.386C279.268 158.626 279.603 154.197 281.999 150.994C283.116 149.5 284.691 148.333 286.616 148.284C288.3 148.241 289.9 148.91 291.484 149.389C293.108 149.925 294.838 150.056 296.523 149.77C298.278 149.398 299.958 148.729 301.489 147.793C304.969 145.741 308.105 143.154 310.782 140.128C313.856 136.691 316.32 132.753 318.066 128.485C318.174 128.221 317.745 128.104 317.638 128.367H317.638Z" fill="white"/>
<path d="M278.238 145.759C279.14 146.848 280.399 147.58 281.792 147.826C283.184 148.071 284.618 147.814 285.839 147.1C286.085 146.954 285.871 146.565 285.624 146.71C284.489 147.377 283.153 147.617 281.857 147.386C280.561 147.154 279.39 146.467 278.556 145.449C278.374 145.228 278.057 145.539 278.238 145.759V145.759Z" fill="white"/>
<path d="M292.576 149.359C292.82 146.479 294.14 143.797 296.273 141.848C296.485 141.655 296.174 141.336 295.963 141.529C293.747 143.562 292.378 146.356 292.131 149.354C292.108 149.639 292.553 149.643 292.576 149.359V149.359Z" fill="white"/>
<path d="M313.297 136.505C312.86 136.156 312.517 135.705 312.297 135.191C312.078 134.677 311.99 134.116 312.041 133.56C312.068 133.274 311.623 133.271 311.596 133.554C311.543 134.169 311.641 134.788 311.882 135.356C312.123 135.925 312.499 136.426 312.978 136.815C313.021 136.855 313.076 136.878 313.135 136.879C313.193 136.88 313.25 136.858 313.293 136.819C313.335 136.778 313.359 136.721 313.359 136.663C313.36 136.604 313.338 136.547 313.297 136.505V136.505Z" fill="white"/>
<path d="M289.019 110.052C288.997 110.229 288.975 110.407 288.95 110.587C288.643 112.973 288.143 115.331 287.454 117.637C287.404 117.817 287.35 117.997 287.294 118.175C285.576 123.712 282.844 128.883 279.238 133.423C277.802 135.229 276.23 136.923 274.536 138.49C272.197 140.653 269.489 142.814 268.044 145.544C267.89 145.827 267.754 146.119 267.636 146.419L274.847 161.202C274.88 161.227 274.91 161.254 274.944 161.28L275.205 161.883C275.298 161.809 275.392 161.729 275.485 161.654C275.54 161.611 275.592 161.565 275.646 161.522C275.682 161.492 275.717 161.462 275.751 161.437C275.763 161.427 275.775 161.417 275.783 161.409C275.817 161.384 275.846 161.357 275.876 161.334C276.408 160.891 276.937 160.444 277.464 159.992C277.467 159.99 277.467 159.99 277.469 159.986C281.475 156.532 285.228 152.714 288.283 148.448C288.375 148.319 288.47 148.189 288.559 148.054C289.925 146.123 291.131 144.084 292.165 141.957C292.727 140.79 293.23 139.596 293.672 138.378C294.807 135.23 295.44 131.924 295.547 128.579C295.76 121.911 293.838 115.25 289.364 110.418C289.25 110.294 289.137 110.174 289.019 110.052Z" fill="#F0F0F0"/>
<path d="M288.847 110.177C290.976 118.251 290.507 126.791 287.505 134.583C286.889 136.272 286.011 137.854 284.902 139.269C283.777 140.613 282.313 141.631 280.662 142.218C279.134 142.796 277.503 143.21 276.142 144.15C275.452 144.641 274.874 145.272 274.445 146.003C274.017 146.733 273.747 147.546 273.655 148.387C273.37 150.479 273.854 152.548 274.397 154.555C275 156.783 275.662 159.088 275.218 161.41C275.165 161.691 275.604 161.758 275.658 161.477C276.429 157.438 274.03 153.7 274.015 149.7C274.007 147.834 274.562 145.954 276.07 144.756C277.388 143.708 279.069 143.279 280.622 142.707C282.241 142.158 283.701 141.222 284.875 139.978C286.052 138.624 286.99 137.079 287.649 135.41C289.193 131.676 290.139 127.723 290.454 123.694C290.84 119.099 290.436 114.472 289.261 110.013C289.188 109.737 288.775 109.902 288.847 110.177V110.177Z" fill="white"/>
<path d="M288.62 132.131C289.995 132.457 291.442 132.283 292.702 131.641C293.961 130.999 294.951 129.93 295.496 128.625C295.605 128.36 295.199 128.178 295.09 128.443C294.585 129.659 293.663 130.655 292.489 131.251C291.314 131.846 289.966 132.003 288.687 131.691C288.409 131.624 288.343 132.064 288.62 132.131V132.131Z" fill="white"/>
<path d="M281.476 142.027C279.936 139.581 279.376 136.644 279.905 133.803C279.958 133.521 279.519 133.454 279.466 133.735C278.92 136.693 279.51 139.748 281.117 142.29C281.271 142.532 281.628 142.268 281.476 142.027V142.027Z" fill="white"/>
<path d="M290.281 119.287C289.722 119.272 289.176 119.118 288.692 118.84C288.207 118.562 287.8 118.167 287.505 117.692C287.355 117.448 286.998 117.713 287.147 117.955C287.474 118.479 287.925 118.914 288.46 119.223C288.995 119.531 289.597 119.705 290.214 119.727C290.272 119.734 290.33 119.719 290.377 119.684C290.424 119.649 290.456 119.598 290.467 119.541C290.476 119.483 290.461 119.423 290.426 119.376C290.391 119.328 290.339 119.297 290.281 119.287H290.281Z" fill="white"/>
<path d="M273.864 162.113H78.1687C76.1534 162.111 74.2213 161.309 72.7962 159.884C71.3712 158.459 70.5696 156.527 70.5673 154.512V7.60126C70.5696 5.58596 71.3712 3.65386 72.7962 2.22884C74.2213 0.803824 76.1534 0.00226251 78.1687 0H273.864C275.879 0.00229828 277.811 0.803878 279.236 2.22889C280.661 3.65391 281.463 5.58599 281.465 7.60126V154.512C281.463 156.527 280.661 158.459 279.236 159.884C277.811 161.309 275.879 162.111 273.864 162.113Z" fill="#E4E4E4"/>
<path d="M224.611 67.4533H194.402C192.909 67.4533 191.478 66.8603 190.422 65.8046C189.366 64.749 188.773 63.3173 188.773 61.8244C188.773 60.3315 189.366 58.8997 190.422 57.8441C191.478 56.7885 192.909 56.1954 194.402 56.1954H224.611C226.104 56.1954 227.536 56.7885 228.591 57.8441C229.647 58.8997 230.24 60.3315 230.24 61.8244C230.24 63.3173 229.647 64.749 228.591 65.8046C227.536 66.8603 226.104 67.4533 224.611 67.4533Z" fill="white"/>
<path d="M198.155 82.8391H191.025C190.478 82.8391 189.953 82.6216 189.566 82.2346C189.179 81.8475 188.961 81.3225 188.961 80.7751C188.961 80.2277 189.179 79.7028 189.566 79.3157C189.953 78.9287 190.478 78.7112 191.025 78.7112H198.155C198.702 78.7112 199.227 78.9287 199.614 79.3157C200.002 79.7028 200.219 80.2277 200.219 80.7751C200.219 81.3225 200.002 81.8475 199.614 82.2346C199.227 82.6216 198.702 82.8391 198.155 82.8391V82.8391Z" fill="white"/>
<path d="M227.801 82.8391H220.671C220.123 82.8391 219.598 82.6216 219.211 82.2346C218.824 81.8475 218.607 81.3225 218.607 80.7751C218.607 80.2277 218.824 79.7028 219.211 79.3157C219.598 78.9287 220.123 78.7112 220.671 78.7112H227.801C228.348 78.7112 228.873 78.9287 229.26 79.3157C229.647 79.7028 229.865 80.2277 229.865 80.7751C229.865 81.3225 229.647 81.8475 229.26 82.2346C228.873 82.6216 228.348 82.8391 227.801 82.8391V82.8391Z" fill="white"/>
<path d="M212.79 82.8391H205.66C205.113 82.8391 204.588 82.6216 204.201 82.2346C203.814 81.8475 203.596 81.3225 203.596 80.7751C203.596 80.2277 203.814 79.7028 204.201 79.3157C204.588 78.9287 205.113 78.7112 205.66 78.7112H212.79C213.338 78.7112 213.863 78.9287 214.25 79.3157C214.637 79.7028 214.854 80.2277 214.854 80.7751C214.854 81.3225 214.637 81.8475 214.25 82.2346C213.863 82.6216 213.338 82.8391 212.79 82.8391V82.8391Z" fill="white"/>
<path d="M198.155 90.7196H191.025C190.478 90.7196 189.953 90.5021 189.566 90.1151C189.179 89.728 188.961 89.203 188.961 88.6556C188.961 88.1083 189.179 87.5833 189.566 87.1962C189.953 86.8092 190.478 86.5917 191.025 86.5917H198.155C198.702 86.5917 199.227 86.8092 199.614 87.1962C200.002 87.5833 200.219 88.1083 200.219 88.6556C200.219 89.203 200.002 89.728 199.614 90.1151C199.227 90.5021 198.702 90.7196 198.155 90.7196Z" fill="white"/>
<path d="M227.801 90.7196H220.671C220.123 90.7196 219.598 90.5021 219.211 90.1151C218.824 89.728 218.607 89.203 218.607 88.6556C218.607 88.1083 218.824 87.5833 219.211 87.1962C219.598 86.8092 220.123 86.5917 220.671 86.5917H227.801C228.348 86.5917 228.873 86.8092 229.26 87.1962C229.647 87.5833 229.865 88.1083 229.865 88.6556C229.865 89.203 229.647 89.728 229.26 90.1151C228.873 90.5021 228.348 90.7196 227.801 90.7196Z" fill="white"/>
<path d="M212.79 90.7196H205.66C205.113 90.7196 204.588 90.5021 204.201 90.1151C203.814 89.728 203.596 89.203 203.596 88.6556C203.596 88.1083 203.814 87.5833 204.201 87.1962C204.588 86.8092 205.113 86.5917 205.66 86.5917H212.79C213.338 86.5917 213.863 86.8092 214.25 87.1962C214.637 87.5833 214.854 88.1083 214.854 88.6556C214.854 89.203 214.637 89.728 214.25 90.1151C213.863 90.5021 213.338 90.7196 212.79 90.7196Z" fill="white"/>
<path d="M198.155 98.6001H191.025C190.478 98.6001 189.953 98.3827 189.566 97.9956C189.179 97.6085 188.961 97.0835 188.961 96.5362C188.961 95.9888 189.179 95.4638 189.566 95.0767C189.953 94.6897 190.478 94.4722 191.025 94.4722H198.155C198.702 94.4722 199.227 94.6897 199.614 95.0767C200.002 95.4638 200.219 95.9888 200.219 96.5362C200.219 97.0835 200.002 97.6085 199.614 97.9956C199.227 98.3827 198.702 98.6001 198.155 98.6001Z" fill="white"/>
<path d="M227.801 98.6001H220.671C220.123 98.6001 219.598 98.3827 219.211 97.9956C218.824 97.6085 218.607 97.0835 218.607 96.5362C218.607 95.9888 218.824 95.4638 219.211 95.0767C219.598 94.6897 220.123 94.4722 220.671 94.4722H227.801C228.348 94.4722 228.873 94.6897 229.26 95.0767C229.647 95.4638 229.865 95.9888 229.865 96.5362C229.865 97.0835 229.647 97.6085 229.26 97.9956C228.873 98.3827 228.348 98.6001 227.801 98.6001Z" fill="white"/>
<path d="M212.79 98.6001H205.66C205.113 98.6001 204.588 98.3827 204.201 97.9956C203.814 97.6085 203.596 97.0835 203.596 96.5362C203.596 95.9888 203.814 95.4638 204.201 95.0767C204.588 94.6897 205.113 94.4722 205.66 94.4722H212.79C213.338 94.4722 213.863 94.6897 214.25 95.0767C214.637 95.4638 214.854 95.9888 214.854 96.5362C214.854 97.0835 214.637 97.6085 214.25 97.9956C213.863 98.3827 213.338 98.6001 212.79 98.6001Z" fill="white"/>
<path d="M198.155 106.481H191.025C190.478 106.481 189.953 106.263 189.566 105.876C189.179 105.489 188.961 104.964 188.961 104.417C188.961 103.869 189.179 103.344 189.566 102.957C189.953 102.57 190.478 102.353 191.025 102.353H198.155C198.702 102.353 199.227 102.57 199.614 102.957C200.002 103.344 200.219 103.869 200.219 104.417C200.219 104.964 200.002 105.489 199.614 105.876C199.227 106.263 198.702 106.481 198.155 106.481Z" fill="white"/>
<path d="M227.801 106.481H220.671C220.123 106.481 219.598 106.263 219.211 105.876C218.824 105.489 218.607 104.964 218.607 104.417C218.607 103.869 218.824 103.344 219.211 102.957C219.598 102.57 220.123 102.353 220.671 102.353H227.801C228.348 102.353 228.873 102.57 229.26 102.957C229.647 103.344 229.865 103.869 229.865 104.417C229.865 104.964 229.647 105.489 229.26 105.876C228.873 106.263 228.348 106.481 227.801 106.481Z" fill="white"/>
<path d="M212.79 106.481H205.66C205.113 106.481 204.588 106.263 204.201 105.876C203.814 105.489 203.596 104.964 203.596 104.417C203.596 103.869 203.814 103.344 204.201 102.957C204.588 102.57 205.113 102.353 205.66 102.353H212.79C213.338 102.353 213.863 102.57 214.25 102.957C214.637 103.344 214.854 103.869 214.854 104.417C214.854 104.964 214.637 105.489 214.25 105.876C213.863 106.263 213.338 106.481 212.79 106.481Z" fill="white"/>
<path d="M149.934 98.2248C160.504 98.2248 169.072 89.6563 169.072 79.0865C169.072 68.5166 160.504 59.9481 149.934 59.9481C139.364 59.9481 130.795 68.5166 130.795 79.0865C130.795 89.6563 139.364 98.2248 149.934 98.2248Z" fill="#CACACA"/>
<path d="M149.934 102.54C148.441 102.539 147.011 101.945 145.955 100.89C144.9 99.8345 144.307 98.4038 144.305 96.9114V61.2615C144.304 60.5219 144.449 59.7895 144.732 59.106C145.015 58.4225 145.429 57.8015 145.952 57.2783C146.475 56.7551 147.095 56.3401 147.779 56.0569C148.462 55.7737 149.194 55.628 149.934 55.628C150.673 55.628 151.406 55.7737 152.089 56.0569C152.772 56.3401 153.393 56.7551 153.916 57.2783C154.438 57.8015 154.853 58.4225 155.136 59.106C155.418 59.7895 155.563 60.5219 155.563 61.2615V96.9114C155.561 98.4038 154.967 99.8345 153.912 100.89C152.857 101.945 151.426 102.539 149.934 102.54V102.54Z" fill="white"/>
<path d="M199.932 65.0363H194.679C194.48 65.0363 194.289 64.9572 194.148 64.8165C194.007 64.6757 193.928 64.4848 193.928 64.2858C193.928 64.0867 194.007 63.8958 194.148 63.7551C194.289 63.6143 194.48 63.5352 194.679 63.5352H199.932C200.131 63.5352 200.322 63.6143 200.463 63.7551C200.604 63.8958 200.683 64.0867 200.683 64.2858C200.683 64.4848 200.604 64.6757 200.463 64.8165C200.322 64.9572 200.131 65.0363 199.932 65.0363Z" fill="#E4E4E4"/>
<path d="M208.188 65.2239H202.934C202.735 65.2239 202.545 65.1448 202.404 65.0041C202.263 64.8633 202.184 64.6724 202.184 64.4734C202.184 64.2743 202.263 64.0834 202.404 63.9427C202.545 63.8019 202.735 63.7229 202.934 63.7229H208.188C208.387 63.7229 208.578 63.8019 208.719 63.9427C208.86 64.0834 208.939 64.2743 208.939 64.4734C208.939 64.6724 208.86 64.8633 208.719 65.0041C208.578 65.1448 208.387 65.2239 208.188 65.2239Z" fill="#E4E4E4"/>
<path d="M216.444 65.4115H211.19C210.991 65.4115 210.8 65.3325 210.66 65.1917C210.519 65.051 210.44 64.8601 210.44 64.661C210.44 64.462 210.519 64.2711 210.66 64.1303C210.8 63.9896 210.991 63.9105 211.19 63.9105H216.444C216.643 63.9105 216.834 63.9896 216.975 64.1303C217.115 64.2711 217.194 64.462 217.194 64.661C217.194 64.8601 217.115 65.051 216.975 65.1917C216.834 65.3325 216.643 65.4115 216.444 65.4115Z" fill="#E4E4E4"/>
<path d="M224.7 65.5992H219.446C219.247 65.5992 219.056 65.5201 218.915 65.3793C218.775 65.2386 218.695 65.0477 218.695 64.8486C218.695 64.6496 218.775 64.4587 218.915 64.3179C219.056 64.1772 219.247 64.0981 219.446 64.0981H224.7C224.899 64.0981 225.09 64.1772 225.23 64.3179C225.371 64.4587 225.45 64.6496 225.45 64.8486C225.45 65.0477 225.371 65.2386 225.23 65.3793C225.09 65.5201 224.899 65.5992 224.7 65.5992Z" fill="#E4E4E4"/>
<path d="M95.5208 138.94C95.5204 139.87 95.7047 140.79 96.0628 141.647C96.421 142.505 96.946 143.282 97.6073 143.935H94.5073C93.5927 143.935 92.6871 143.755 91.8421 143.405C90.9971 143.055 90.2294 142.542 89.5826 141.895C88.9359 141.249 88.4229 140.481 88.0729 139.636C87.7229 138.791 87.5428 137.885 87.5428 136.971V24.061C87.5428 23.1464 87.7229 22.2408 88.0729 21.3958C88.4229 20.5509 88.9359 19.7831 89.5826 19.1364C90.2294 18.4897 90.9971 17.9767 91.8421 17.6267C92.6871 17.2767 93.5927 17.0965 94.5073 17.0965H99.0183C97.9544 17.7153 97.0715 18.6023 96.4578 19.6691C95.844 20.7359 95.5209 21.9451 95.5208 23.1758L95.5208 138.94Z" fill="#CACACA"/>
<path d="M352.552 162.85H0.445527C0.327247 162.849 0.213932 162.802 0.130416 162.718C0.0469012 162.635 0 162.521 0 162.403C0 162.285 0.0469012 162.171 0.130416 162.087C0.213932 162.004 0.327247 161.956 0.445527 161.956H352.552C352.67 161.956 352.784 162.003 352.868 162.087C352.952 162.171 352.999 162.284 352.999 162.403C352.999 162.521 352.952 162.635 352.868 162.719C352.784 162.803 352.67 162.85 352.552 162.85Z" fill="#CACACA"/>
<path d="M95.5208 57.1483V70.2186C95.2797 70.3633 95.0289 70.4912 94.7702 70.6014C93.4233 71.2028 91.93 71.3974 90.474 71.1614C89.0179 70.9254 87.6626 70.269 86.5746 69.273C86.4696 69.1792 86.3644 69.0779 86.2631 68.9728C86.1618 68.8715 86.0643 68.7626 85.9704 68.6538C84.8376 67.3526 84.1829 65.7038 84.1145 63.9799C84.0461 62.2561 84.5682 60.5605 85.5944 59.1737C86.6206 57.7869 88.0894 56.7919 89.758 56.3533C91.4265 55.9147 93.1947 56.0588 94.7702 56.7617C95.0272 56.877 95.2777 57.006 95.5208 57.1483V57.1483Z" fill="white"/>
<path d="M95.5208 73.7349V88.4489C95.2734 88.5119 95.0228 88.562 94.7702 88.599C93.2636 88.8101 91.7284 88.5632 90.364 87.8903C88.9996 87.2174 87.8692 86.1496 87.1196 84.8258C86.3701 83.5019 86.0361 81.9832 86.1611 80.4671C86.2861 78.9509 86.8643 77.5074 87.8206 76.3242C87.9069 76.2153 87.9968 76.1103 88.0945 76.0089C88.1844 75.9039 88.2821 75.8026 88.3834 75.705C89.2132 74.8843 90.2213 74.2663 91.3291 73.8992C92.4369 73.5321 93.6146 73.4257 94.7702 73.5885C95.0231 73.6224 95.2737 73.6713 95.5208 73.7349V73.7349Z" fill="white"/>
<path d="M94.7703 48.1345V85.5894C95.0218 85.5068 95.2732 85.428 95.5208 85.353V48.476C95.2694 48.3596 95.0219 48.2471 94.7703 48.1345ZM94.7703 48.1345V85.5894C95.0218 85.5068 95.2732 85.428 95.5208 85.353V48.476C95.2694 48.3596 95.0219 48.2471 94.7703 48.1345ZM94.7703 48.1345V85.5894C95.0218 85.5068 95.2732 85.428 95.5208 85.353V48.476C95.2694 48.3596 95.0219 48.2471 94.7703 48.1345ZM94.7703 50.8701V94.0291C95.0218 93.969 95.2732 93.9127 95.5208 93.8564V51.084C95.2694 51.009 95.018 50.9377 94.7703 50.8701V50.8701ZM94.7703 50.8701V94.0291C95.0218 93.969 95.2732 93.9127 95.5208 93.8564V51.084C95.2694 51.009 95.018 50.9377 94.7703 50.8701V50.8701ZM94.7703 50.8701V94.0291C95.0218 93.969 95.2732 93.9127 95.5208 93.8564V51.084C95.2694 51.009 95.018 50.9377 94.7703 50.8701V50.8701ZM94.7703 50.8701V94.0291C95.0218 93.969 95.2732 93.9127 95.5208 93.8564V51.084C95.2694 51.009 95.018 50.9377 94.7703 50.8701V50.8701ZM94.7703 50.8701V94.4193C95.0218 94.3593 95.2694 94.2992 95.5208 94.243V51.084C95.2694 51.009 95.018 50.9377 94.7703 50.8701V50.8701ZM258.478 15.3853H102.561C100.496 15.3888 98.5161 16.2106 97.0559 17.6709C95.5956 19.1311 94.7737 21.1107 94.7703 23.1758V138.94C94.7738 141.005 95.5958 142.984 97.0562 144.444C98.5165 145.904 100.496 146.725 102.561 146.727H258.478C260.543 146.725 262.522 145.903 263.982 144.444C265.441 142.984 266.263 141.005 266.265 138.94V23.1758C266.263 21.1108 265.443 19.1308 263.983 17.6703C262.523 16.2098 260.543 15.3881 258.478 15.3853V15.3853ZM265.515 138.94C265.513 140.806 264.771 142.595 263.452 143.914C262.133 145.233 260.344 145.975 258.478 145.977H102.561C100.695 145.975 98.9058 145.233 97.586 143.914C96.2663 142.595 95.5236 140.806 95.5208 138.94V23.1758C95.5236 21.3095 96.2662 19.5205 97.5859 18.2009C98.9055 16.8813 100.695 16.1387 102.561 16.1359H258.478C260.345 16.138 262.134 16.8805 263.453 18.2004C264.772 19.5203 265.513 21.3097 265.515 23.1758V138.94ZM94.7703 50.8701V93.65C95.0218 93.59 95.2694 93.53 95.5208 93.4699V51.084C95.2694 51.009 95.018 50.9377 94.7703 50.8701V50.8701ZM94.7703 50.8701V94.0291C95.0218 93.969 95.2732 93.9127 95.5208 93.8564V51.084C95.2694 51.009 95.018 50.9377 94.7703 50.8701V50.8701ZM94.7703 50.8701V94.0291C95.0218 93.969 95.2732 93.9127 95.5208 93.8564V51.084C95.2694 51.009 95.018 50.9377 94.7703 50.8701V50.8701ZM94.7703 50.8701V94.0291C95.0218 93.969 95.2732 93.9127 95.5208 93.8564V51.084C95.2694 51.009 95.018 50.9377 94.7703 50.8701V50.8701ZM94.7703 48.1345V85.5894C95.0218 85.5068 95.2732 85.428 95.5208 85.353V48.476C95.2694 48.3596 95.0219 48.2471 94.7703 48.1345V48.1345ZM94.7703 48.1345V85.5894C95.0218 85.5068 95.2732 85.428 95.5208 85.353V48.476C95.2694 48.3596 95.0219 48.2471 94.7703 48.1345V48.1345Z" fill="#CACACA"/>
</svg>
