<svg xmlns="http://www.w3.org/2000/svg" version="1.1" xmlns:xlink="http://www.w3.org/1999/xlink" xmlns:svgjs="http://svgjs.com/svgjs" width="1440" height="560" preserveAspectRatio="none" viewBox="0 0 1440 560"><g mask="url(&quot;#SvgjsMask1000&quot;)" fill="none"><rect width="1440" height="560" x="0" y="0" fill="red"></rect><path d="M0,497.12C110.632,495.245,241.002,577.772,325.102,505.869C412.28,431.334,352.473,284.671,379.002,173.084C398.918,89.314,448.674,18.898,461.132,-66.301C477.616,-179.033,524.421,-305.228,462.969,-401.165C401.596,-496.979,271.938,-533.501,158.29,-539.087C54.738,-544.177,-32.085,-473.407,-126.298,-430.13C-206.047,-393.497,-293.991,-370.867,-351.753,-304.795C-409.643,-238.577,-416.382,-146.891,-446.239,-64.159C-484.827,42.766,-574.746,140.937,-552.869,252.487C-530.317,367.483,-439.428,469.593,-332.263,517.011C-228.702,562.835,-113.23,499.039,0,497.12" fill="blue"></path><path d="M1440 919.182C1523.413 928.133 1618.646 992.69 1685.517 942.0319999999999 1753.8609999999999 890.258 1704.423 774.88 1735.81 695.092 1764.616 621.866 1851.667 577.975 1859.529 499.681 1867.92 416.11400000000003 1840.51 323.41200000000003 1778.859 266.377 1718.271 210.32600000000002 1624.409 223.904 1543.545 207.35899999999998 1470.381 192.39 1400.134 160.72500000000002 1326.616 173.85000000000002 1248.435 187.80700000000002 1172.455 223.08800000000002 1120.2440000000001 282.93 1067.952 342.86400000000003 1055.9279999999999 424.568 1039.895 502.474 1022.8910000000001 585.099 987.806 673.7860000000001 1024.141 749.9159999999999 1060.3980000000001 825.881 1148.1979999999999 861.0070000000001 1226.161 892.74 1294.059 920.376 1367.111 911.361 1440 919.182" fill="blue"></path></g><defs><mask id="SvgjsMask1000"><rect width="1440" height="560" fill="white"></rect></mask></defs></svg>